<?xml version="1.0" standalone="no"?>
<!DOCTYPE svg PUBLIC "-//W3C//DTD SVG 20010904//EN"
 "http://www.w3.org/TR/2001/REC-SVG-20010904/DTD/svg10.dtd">
<svg version="1.0" xmlns="http://www.w3.org/2000/svg"
 width="1770.000000pt" height="1770.000000pt" viewBox="0 0 1770.000000 1770.000000"
 preserveAspectRatio="xMidYMid meet">
<metadata>
Created by potrace 1.11, written by Peter Selinger 2001-2013
</metadata>
<g transform="translate(0.000000,1770.000000) scale(0.100000,-0.100000)"
fill="#000000" stroke="none">
<path d="M8724 17112 c-87 -30 -164 -83 -259 -177 -189 -187 -330 -408 -705
-1100 -519 -958 -783 -1375 -1147 -1813 -136 -164 -424 -449 -575 -570 -583
-464 -1192 -682 -1913 -682 -526 0 -982 113 -1499 372 -395 198 -753 440
-1357 919 -482 382 -632 483 -798 540 -72 25 -161 25 -210 -1 -108 -55 -190
-243 -238 -544 -22 -139 -25 -661 -5 -856 111 -1073 494 -2383 1087 -3725 935
-2114 2256 -4012 3755 -5395 203 -187 394 -351 705 -605 991 -808 1603 -1378
2476 -2305 492 -522 600 -604 804 -604 110 0 184 26 309 107 169 111 330 266
1043 1007 537 557 960 956 1573 1481 382 328 616 545 965 894 728 728 1371
1491 2005 2380 1606 2252 2771 4915 2945 6730 20 214 20 645 0 802 -44 329
-133 574 -262 713 -77 83 -138 113 -233 113 -187 2 -394 -132 -842 -542 -393
-359 -450 -410 -586 -527 -707 -606 -1290 -891 -1930 -945 -169 -14 -523 -6
-682 16 -549 76 -1033 290 -1499 664 -127 101 -397 366 -521 510 -358 416
-652 870 -1095 1686 -208 383 -316 579 -383 695 -266 457 -482 699 -681 760
-79 25 -179 25 -247 2z"/>
</g>
</svg>
